<?xml version="1.0" encoding="UTF-8" standalone="no"?>
<!DOCTYPE svg PUBLIC "-//W3C//DTD SVG 1.1//EN"
 "http://www.w3.org/Graphics/SVG/1.1/DTD/svg11.dtd">
<!-- Generated by graphviz version 2.47.0 (20210316.0004)
 -->
<!-- Title: dependencies Pages: 1 -->
<svg width="1141pt" height="374pt"
 viewBox="0.00 0.00 1141.00 374.00" xmlns="http://www.w3.org/2000/svg" xmlns:xlink="http://www.w3.org/1999/xlink">
<g id="graph0" class="graph" transform="scale(1 1) rotate(0) translate(4 370)">
<title>dependencies</title>
<polygon fill="white" stroke="transparent" points="-4,4 -4,-370 1137,-370 1137,4 -4,4"/>
<text text-anchor="start" x="545.51" y="-42.4" font-family="Times-12" font-weight="bold" font-size="14.00">Legend</text>
<polygon fill="#ffffb3" stroke="transparent" points="332.5,-10 332.5,-30 352.5,-30 352.5,-10 332.5,-10"/>
<text text-anchor="start" x="356.13" y="-15.4" font-family="Times-12" font-size="14.00"> &#160;Declarations</text>
<polygon fill="#8dd3c7" stroke="transparent" points="445.5,-10 445.5,-30 465.5,-30 465.5,-10 445.5,-10"/>
<text text-anchor="start" x="469.23" y="-15.4" font-family="Times-12" font-size="14.00"> &#160;Module</text>
<polygon fill="#80b1d3" stroke="transparent" points="531.5,-10 531.5,-30 551.5,-30 551.5,-10 531.5,-10"/>
<text text-anchor="start" x="555.28" y="-15.4" font-family="Times-12" font-size="14.00"> &#160;Bootstrap</text>
<polygon fill="#fdb462" stroke="transparent" points="628.5,-10 628.5,-30 648.5,-30 648.5,-10 628.5,-10"/>
<text text-anchor="start" x="652.17" y="-15.4" font-family="Times-12" font-size="14.00"> &#160;Providers</text>
<polygon fill="#fb8072" stroke="transparent" points="724.5,-10 724.5,-30 744.5,-30 744.5,-10 724.5,-10"/>
<text text-anchor="start" x="748.23" y="-15.4" font-family="Times-12" font-size="14.00"> &#160;Exports</text>
<g id="clust7" class="cluster">
<title>cluster_AuthModule</title>
<polygon fill="none" stroke="black" stroke-dasharray="1,5" points="975,-146 975,-358 1125,-358 1125,-146 975,-146"/>
</g>
<g id="clust12" class="cluster">
<title>cluster_AuthModule_providers</title>
<polygon fill="none" stroke="black" points="983,-154 983,-206 1117,-206 1117,-154 983,-154"/>
</g>
<g id="clust10" class="cluster">
<title>cluster_AuthModule_exports</title>
<polygon fill="none" stroke="black" points="990,-298 990,-350 1096,-350 1096,-298 990,-298"/>
</g>
<g id="clust1" class="cluster">
<title>cluster_AppModule</title>
<polygon fill="none" stroke="black" stroke-dasharray="1,5" points="168,-146 168,-350 685,-350 685,-146 168,-146"/>
</g>
<g id="clust3" class="cluster">
<title>cluster_AppModule_imports</title>
<polygon fill="none" stroke="black" points="314,-154 314,-282 677,-282 677,-154 314,-154"/>
</g>
<g id="clust6" class="cluster">
<title>cluster_AppModule_providers</title>
<polygon fill="none" stroke="black" points="176,-230 176,-282 306,-282 306,-230 176,-230"/>
</g>
<g id="clust31" class="cluster">
<title>cluster_UsersModule</title>
<polygon fill="none" stroke="black" stroke-dasharray="1,5" points="693,-222 693,-290 967,-290 967,-222 693,-222"/>
</g>
<g id="clust34" class="cluster">
<title>cluster_UsersModule_exports</title>
<polygon fill="none" stroke="black" points="849,-230 849,-282 959,-282 959,-230 849,-230"/>
</g>
<g id="clust36" class="cluster">
<title>cluster_UsersModule_providers</title>
<polygon fill="none" stroke="black" points="701,-230 701,-282 841,-282 841,-230 701,-230"/>
</g>
<g id="clust19" class="cluster">
<title>cluster_PostsModule</title>
<polygon fill="none" stroke="black" stroke-dasharray="1,5" points="8,-146 8,-214 160,-214 160,-146 8,-146"/>
</g>
<g id="clust24" class="cluster">
<title>cluster_PostsModule_providers</title>
<polygon fill="none" stroke="black" points="16,-154 16,-206 152,-206 152,-154 16,-154"/>
</g>
<g id="clust13" class="cluster">
<title>cluster_MetaOptionsModule</title>
<polygon fill="none" stroke="black" stroke-dasharray="1,5" points="282,-70 282,-138 494,-138 494,-70 282,-70"/>
</g>
<g id="clust18" class="cluster">
<title>cluster_MetaOptionsModule_providers</title>
<polygon fill="none" stroke="black" points="290,-78 290,-130 486,-130 486,-78 290,-78"/>
</g>
<!-- AuthModule -->
<g id="node1" class="node">
<title>AuthModule</title>
<polygon fill="#8dd3c7" stroke="black" points="1086.55,-274 1083.55,-278 1062.55,-278 1059.55,-274 999.45,-274 999.45,-238 1086.55,-238 1086.55,-274"/>
<text text-anchor="middle" x="1043" y="-251.8" font-family="Times,serif" font-size="14.00">AuthModule</text>
</g>
<!-- AppModule -->
<g id="node6" class="node">
<title>AppModule</title>
<polygon fill="#8dd3c7" stroke="black" points="547.66,-342 544.66,-346 523.66,-346 520.66,-342 464.34,-342 464.34,-306 547.66,-306 547.66,-342"/>
<text text-anchor="middle" x="506" y="-319.8" font-family="Times,serif" font-size="14.00">AppModule</text>
</g>
<!-- AuthModule&#45;&gt;AppModule -->
<g id="edge1" class="edge">
<title>AuthModule&#45;&gt;AppModule</title>
<path fill="none" stroke="black" d="M999.31,-256C996.33,-256 994.48,-256 994.48,-256 994.48,-256 994.48,-330 994.48,-330 994.48,-330 558.07,-330 558.07,-330"/>
<polygon fill="black" stroke="black" points="558.07,-326.5 548.07,-330 558.07,-333.5 558.07,-326.5"/>
</g>
<!-- AuthService  -->
<g id="node8" class="node">
<title>AuthService </title>
<polygon fill="#fb8072" stroke="black" points="1087.98,-342 998.02,-342 998.02,-306 1087.98,-306 1087.98,-342"/>
<text text-anchor="middle" x="1043" y="-319.8" font-family="Times,serif" font-size="14.00">AuthService </text>
</g>
<!-- AuthModule&#45;&gt;AuthService  -->
<g id="edge7" class="edge">
<title>AuthModule&#45;&gt;AuthService </title>
<path fill="none" stroke="black" stroke-dasharray="5,2" d="M1043,-274.22C1043,-274.22 1043,-295.73 1043,-295.73"/>
<polygon fill="black" stroke="black" points="1039.5,-295.73 1043,-305.73 1046.5,-295.73 1039.5,-295.73"/>
</g>
<!-- MetaOptionsModule -->
<g id="node2" class="node">
<title>MetaOptionsModule</title>
<polygon fill="#8dd3c7" stroke="black" points="454.15,-198 451.15,-202 430.15,-202 427.15,-198 321.85,-198 321.85,-162 454.15,-162 454.15,-198"/>
<text text-anchor="middle" x="388" y="-175.8" font-family="Times,serif" font-size="14.00">MetaOptionsModule</text>
</g>
<!-- MetaOptionsModule&#45;&gt;AppModule -->
<g id="edge2" class="edge">
<title>MetaOptionsModule&#45;&gt;AppModule</title>
<path fill="none" stroke="black" d="M354.56,-198.04C354.56,-235.45 354.56,-318 354.56,-318 354.56,-318 454.22,-318 454.22,-318"/>
<polygon fill="black" stroke="black" points="454.22,-321.5 464.22,-318 454.22,-314.5 454.22,-321.5"/>
</g>
<!-- PostsModule -->
<g id="node3" class="node">
<title>PostsModule</title>
<polygon fill="#8dd3c7" stroke="black" points="476.61,-274 473.61,-278 452.61,-278 449.61,-274 387.39,-274 387.39,-238 476.61,-238 476.61,-274"/>
<text text-anchor="middle" x="432" y="-251.8" font-family="Times,serif" font-size="14.00">PostsModule</text>
</g>
<!-- PostsModule&#45;&gt;AppModule -->
<g id="edge3" class="edge">
<title>PostsModule&#45;&gt;AppModule</title>
<path fill="none" stroke="black" d="M470.36,-274.22C470.36,-274.22 470.36,-295.73 470.36,-295.73"/>
<polygon fill="black" stroke="black" points="466.86,-295.73 470.36,-305.73 473.86,-295.73 466.86,-295.73"/>
</g>
<!-- TagsModule -->
<g id="node4" class="node">
<title>TagsModule</title>
<polygon fill="#8dd3c7" stroke="black" points="559.26,-198 556.26,-202 535.26,-202 532.26,-198 472.74,-198 472.74,-162 559.26,-162 559.26,-198"/>
<text text-anchor="middle" x="516" y="-175.8" font-family="Times,serif" font-size="14.00">TagsModule</text>
</g>
<!-- TagsModule&#45;&gt;AppModule -->
<g id="edge4" class="edge">
<title>TagsModule&#45;&gt;AppModule</title>
<path fill="none" stroke="black" d="M512.19,-198.24C512.19,-198.24 512.19,-295.91 512.19,-295.91"/>
<polygon fill="black" stroke="black" points="508.69,-295.91 512.19,-305.91 515.69,-295.91 508.69,-295.91"/>
</g>
<!-- UsersModule -->
<g id="node5" class="node">
<title>UsersModule</title>
<polygon fill="#8dd3c7" stroke="black" points="668.92,-198 665.92,-202 644.92,-202 641.92,-198 577.08,-198 577.08,-162 668.92,-162 668.92,-198"/>
<text text-anchor="middle" x="623" y="-175.8" font-family="Times,serif" font-size="14.00">UsersModule</text>
</g>
<!-- UsersModule&#45;&gt;PostsModule -->
<g id="edge10" class="edge">
<title>UsersModule&#45;&gt;PostsModule</title>
<path fill="none" stroke="black" d="M600.14,-198.03C600.14,-218.77 600.14,-250 600.14,-250 600.14,-250 486.62,-250 486.62,-250"/>
<polygon fill="black" stroke="black" points="486.62,-246.5 476.62,-250 486.62,-253.5 486.62,-246.5"/>
</g>
<!-- UsersModule&#45;&gt;AppModule -->
<g id="edge5" class="edge">
<title>UsersModule&#45;&gt;AppModule</title>
<path fill="none" stroke="black" d="M623,-198.04C623,-235.45 623,-318 623,-318 623,-318 557.91,-318 557.91,-318"/>
<polygon fill="black" stroke="black" points="557.91,-314.5 547.91,-318 557.91,-321.5 557.91,-314.5"/>
</g>
<!-- UsersService  -->
<g id="node12" class="node">
<title>UsersService </title>
<polygon fill="#fb8072" stroke="black" points="950.85,-274 857.15,-274 857.15,-238 950.85,-238 950.85,-274"/>
<text text-anchor="middle" x="904" y="-251.8" font-family="Times,serif" font-size="14.00">UsersService </text>
</g>
<!-- UsersModule&#45;&gt;UsersService  -->
<g id="edge12" class="edge">
<title>UsersModule&#45;&gt;UsersService </title>
<path fill="none" stroke="black" stroke-dasharray="5,2" d="M668.77,-180C748.4,-180 904,-180 904,-180 904,-180 904,-227.99 904,-227.99"/>
<polygon fill="black" stroke="black" points="900.5,-227.99 904,-237.99 907.5,-227.99 900.5,-227.99"/>
</g>
<!-- AppService -->
<g id="node7" class="node">
<title>AppService</title>
<ellipse fill="#fdb462" stroke="black" cx="241" cy="-256" rx="56.74" ry="18"/>
<text text-anchor="middle" x="241" y="-251.8" font-family="Times,serif" font-size="14.00">AppService</text>
</g>
<!-- AppService&#45;&gt;AppModule -->
<g id="edge6" class="edge">
<title>AppService&#45;&gt;AppModule</title>
<path fill="none" stroke="black" d="M241,-274.29C241,-296.21 241,-330 241,-330 241,-330 454.3,-330 454.3,-330"/>
<polygon fill="black" stroke="black" points="454.3,-333.5 464.3,-330 454.3,-326.5 454.3,-333.5"/>
</g>
<!-- AuthService -->
<g id="node9" class="node">
<title>AuthService</title>
<ellipse fill="#fdb462" stroke="black" cx="1050" cy="-180" rx="59.11" ry="18"/>
<text text-anchor="middle" x="1050" y="-175.8" font-family="Times,serif" font-size="14.00">AuthService</text>
</g>
<!-- AuthService&#45;&gt;AuthModule -->
<g id="edge8" class="edge">
<title>AuthService&#45;&gt;AuthModule</title>
<path fill="none" stroke="black" d="M1043,-198.01C1043,-198.01 1043,-227.85 1043,-227.85"/>
<polygon fill="black" stroke="black" points="1039.5,-227.85 1043,-237.85 1046.5,-227.85 1039.5,-227.85"/>
</g>
<!-- MetaOptionsService -->
<g id="node10" class="node">
<title>MetaOptionsService</title>
<ellipse fill="#fdb462" stroke="black" cx="388" cy="-104" rx="90.33" ry="18"/>
<text text-anchor="middle" x="388" y="-99.8" font-family="Times,serif" font-size="14.00">MetaOptionsService</text>
</g>
<!-- MetaOptionsService&#45;&gt;MetaOptionsModule -->
<g id="edge9" class="edge">
<title>MetaOptionsService&#45;&gt;MetaOptionsModule</title>
<path fill="none" stroke="black" d="M388,-122.01C388,-122.01 388,-151.85 388,-151.85"/>
<polygon fill="black" stroke="black" points="384.5,-151.85 388,-161.85 391.5,-151.85 384.5,-151.85"/>
</g>
<!-- PostsService -->
<g id="node11" class="node">
<title>PostsService</title>
<ellipse fill="#fdb462" stroke="black" cx="84" cy="-180" rx="60.27" ry="18"/>
<text text-anchor="middle" x="84" y="-175.8" font-family="Times,serif" font-size="14.00">PostsService</text>
</g>
<!-- PostsService&#45;&gt;PostsModule -->
<g id="edge11" class="edge">
<title>PostsService&#45;&gt;PostsModule</title>
<path fill="none" stroke="black" d="M144.47,-180C211.31,-180 309.65,-180 309.65,-180 309.65,-180 309.65,-256 309.65,-256 309.65,-256 377.14,-256 377.14,-256"/>
<polygon fill="black" stroke="black" points="377.14,-259.5 387.14,-256 377.14,-252.5 377.14,-259.5"/>
</g>
<!-- UsersService -->
<g id="node13" class="node">
<title>UsersService</title>
<ellipse fill="#fdb462" stroke="black" cx="771" cy="-256" rx="61.95" ry="18"/>
<text text-anchor="middle" x="771" y="-251.8" font-family="Times,serif" font-size="14.00">UsersService</text>
</g>
<!-- UsersService&#45;&gt;UsersModule -->
<g id="edge13" class="edge">
<title>UsersService&#45;&gt;UsersModule</title>
<path fill="none" stroke="black" d="M712.46,-262C679.89,-262 645.86,-262 645.86,-262 645.86,-262 645.86,-208.2 645.86,-208.2"/>
<polygon fill="black" stroke="black" points="649.36,-208.2 645.86,-198.2 642.36,-208.2 649.36,-208.2"/>
</g>
</g>
</svg>
