<?xml version="1.0" encoding="UTF-8" standalone="no"?>
<!DOCTYPE svg PUBLIC "-//W3C//DTD SVG 1.1//EN"
 "http://www.w3.org/Graphics/SVG/1.1/DTD/svg11.dtd">
<!-- Generated by graphviz version 2.47.0 (20210316.0004)
 -->
<!-- Title: dependencies Pages: 1 -->
<svg width="1430pt" height="374pt"
 viewBox="0.00 0.00 1430.00 374.00" xmlns="http://www.w3.org/2000/svg" xmlns:xlink="http://www.w3.org/1999/xlink">
<g id="graph0" class="graph" transform="scale(1 1) rotate(0) translate(4 370)">
<title>dependencies</title>
<polygon fill="white" stroke="transparent" points="-4,4 -4,-370 1426,-370 1426,4 -4,4"/>
<text text-anchor="start" x="690.01" y="-42.4" font-family="Times-12" font-weight="bold" font-size="14.00">Legend</text>
<polygon fill="#ffffb3" stroke="transparent" points="477,-10 477,-30 497,-30 497,-10 477,-10"/>
<text text-anchor="start" x="500.63" y="-15.4" font-family="Times-12" font-size="14.00"> &#160;Declarations</text>
<polygon fill="#8dd3c7" stroke="transparent" points="590,-10 590,-30 610,-30 610,-10 590,-10"/>
<text text-anchor="start" x="613.73" y="-15.4" font-family="Times-12" font-size="14.00"> &#160;Module</text>
<polygon fill="#80b1d3" stroke="transparent" points="676,-10 676,-30 696,-30 696,-10 676,-10"/>
<text text-anchor="start" x="699.78" y="-15.4" font-family="Times-12" font-size="14.00"> &#160;Bootstrap</text>
<polygon fill="#fdb462" stroke="transparent" points="773,-10 773,-30 793,-30 793,-10 773,-10"/>
<text text-anchor="start" x="796.67" y="-15.4" font-family="Times-12" font-size="14.00"> &#160;Providers</text>
<polygon fill="#fb8072" stroke="transparent" points="869,-10 869,-30 889,-30 889,-10 869,-10"/>
<text text-anchor="start" x="892.73" y="-15.4" font-family="Times-12" font-size="14.00"> &#160;Exports</text>
<g id="clust31" class="cluster">
<title>cluster_UsersModule</title>
<polygon fill="none" stroke="black" stroke-dasharray="1,5" points="1258,-70 1258,-282 1414,-282 1414,-70 1258,-70"/>
</g>
<g id="clust34" class="cluster">
<title>cluster_UsersModule_exports</title>
<polygon fill="none" stroke="black" points="1288,-222 1288,-274 1398,-274 1398,-222 1288,-222"/>
</g>
<g id="clust36" class="cluster">
<title>cluster_UsersModule_providers</title>
<polygon fill="none" stroke="black" points="1266,-78 1266,-130 1406,-130 1406,-78 1266,-78"/>
</g>
<g id="clust19" class="cluster">
<title>cluster_PostsModule</title>
<polygon fill="none" stroke="black" stroke-dasharray="1,5" points="988,-138 988,-274 1250,-274 1250,-138 988,-138"/>
</g>
<g id="clust21" class="cluster">
<title>cluster_PostsModule_imports</title>
<polygon fill="none" stroke="black" points="996,-146 996,-198 1098,-198 1098,-146 996,-146"/>
</g>
<g id="clust24" class="cluster">
<title>cluster_PostsModule_providers</title>
<polygon fill="none" stroke="black" points="1106,-146 1106,-198 1242,-198 1242,-146 1106,-146"/>
</g>
<g id="clust1" class="cluster">
<title>cluster_AppModule</title>
<polygon fill="none" stroke="black" stroke-dasharray="1,5" points="280,-214 280,-350 688,-350 688,-214 280,-214"/>
</g>
<g id="clust6" class="cluster">
<title>cluster_AppModule_providers</title>
<polygon fill="none" stroke="black" points="550,-222 550,-274 680,-274 680,-222 550,-222"/>
</g>
<g id="clust3" class="cluster">
<title>cluster_AppModule_imports</title>
<polygon fill="none" stroke="black" points="288,-222 288,-274 542,-274 542,-222 288,-222"/>
</g>
<g id="clust13" class="cluster">
<title>cluster_MetaOptionsModule</title>
<polygon fill="none" stroke="black" stroke-dasharray="1,5" points="362,-138 362,-206 574,-206 574,-138 362,-138"/>
</g>
<g id="clust18" class="cluster">
<title>cluster_MetaOptionsModule_providers</title>
<polygon fill="none" stroke="black" points="370,-146 370,-198 566,-198 566,-146 370,-146"/>
</g>
<g id="clust7" class="cluster">
<title>cluster_AuthModule</title>
<polygon fill="none" stroke="black" stroke-dasharray="1,5" points="8,-290 8,-358 272,-358 272,-290 8,-290"/>
</g>
<g id="clust10" class="cluster">
<title>cluster_AuthModule_exports</title>
<polygon fill="none" stroke="black" points="158,-298 158,-350 264,-350 264,-298 158,-298"/>
</g>
<g id="clust12" class="cluster">
<title>cluster_AuthModule_providers</title>
<polygon fill="none" stroke="black" points="16,-298 16,-350 150,-350 150,-298 16,-298"/>
</g>
<g id="clust25" class="cluster">
<title>cluster_TagsModule</title>
<polygon fill="none" stroke="black" stroke-dasharray="1,5" points="718,-214 718,-282 980,-282 980,-214 718,-214"/>
</g>
<g id="clust28" class="cluster">
<title>cluster_TagsModule_exports</title>
<polygon fill="none" stroke="black" points="868,-222 868,-274 972,-274 972,-222 868,-222"/>
</g>
<g id="clust30" class="cluster">
<title>cluster_TagsModule_providers</title>
<polygon fill="none" stroke="black" points="726,-222 726,-274 860,-274 860,-222 726,-222"/>
</g>
<!-- AuthModule -->
<g id="node1" class="node">
<title>AuthModule</title>
<polygon fill="#8dd3c7" stroke="black" points="383.55,-266 380.55,-270 359.55,-270 356.55,-266 296.45,-266 296.45,-230 383.55,-230 383.55,-266"/>
<text text-anchor="middle" x="340" y="-243.8" font-family="Times,serif" font-size="14.00">AuthModule</text>
</g>
<!-- AppModule -->
<g id="node6" class="node">
<title>AppModule</title>
<polygon fill="#8dd3c7" stroke="black" points="667.66,-342 664.66,-346 643.66,-346 640.66,-342 584.34,-342 584.34,-306 667.66,-306 667.66,-342"/>
<text text-anchor="middle" x="626" y="-319.8" font-family="Times,serif" font-size="14.00">AppModule</text>
</g>
<!-- AuthModule&#45;&gt;AppModule -->
<g id="edge1" class="edge">
<title>AuthModule&#45;&gt;AppModule</title>
<path fill="none" stroke="black" d="M354.59,-266.01C354.59,-288.49 354.59,-324 354.59,-324 354.59,-324 574.19,-324 574.19,-324"/>
<polygon fill="black" stroke="black" points="574.19,-327.5 584.19,-324 574.19,-320.5 574.19,-327.5"/>
</g>
<!-- AuthService  -->
<g id="node8" class="node">
<title>AuthService </title>
<polygon fill="#fb8072" stroke="black" points="255.98,-342 166.02,-342 166.02,-306 255.98,-306 255.98,-342"/>
<text text-anchor="middle" x="211" y="-319.8" font-family="Times,serif" font-size="14.00">AuthService </text>
</g>
<!-- AuthModule&#45;&gt;AuthService  -->
<g id="edge7" class="edge">
<title>AuthModule&#45;&gt;AuthService </title>
<path fill="none" stroke="black" stroke-dasharray="5,2" d="M325.41,-266.03C325.41,-290.98 325.41,-333 325.41,-333 325.41,-333 265.89,-333 265.89,-333"/>
<polygon fill="black" stroke="black" points="265.89,-329.5 255.89,-333 265.89,-336.5 265.89,-329.5"/>
</g>
<!-- MetaOptionsModule -->
<g id="node2" class="node">
<title>MetaOptionsModule</title>
<polygon fill="#8dd3c7" stroke="black" points="534.15,-266 531.15,-270 510.15,-270 507.15,-266 401.85,-266 401.85,-230 534.15,-230 534.15,-266"/>
<text text-anchor="middle" x="468" y="-243.8" font-family="Times,serif" font-size="14.00">MetaOptionsModule</text>
</g>
<!-- MetaOptionsModule&#45;&gt;AppModule -->
<g id="edge2" class="edge">
<title>MetaOptionsModule&#45;&gt;AppModule</title>
<path fill="none" stroke="black" d="M468,-266.31C468,-286.15 468,-315 468,-315 468,-315 574.07,-315 574.07,-315"/>
<polygon fill="black" stroke="black" points="574.07,-318.5 584.07,-315 574.07,-311.5 574.07,-318.5"/>
</g>
<!-- PostsModule -->
<g id="node3" class="node">
<title>PostsModule</title>
<polygon fill="#8dd3c7" stroke="black" points="1154.61,-266 1151.61,-270 1130.61,-270 1127.61,-266 1065.39,-266 1065.39,-230 1154.61,-230 1154.61,-266"/>
<text text-anchor="middle" x="1110" y="-243.8" font-family="Times,serif" font-size="14.00">PostsModule</text>
</g>
<!-- PostsModule&#45;&gt;AppModule -->
<g id="edge3" class="edge">
<title>PostsModule&#45;&gt;AppModule</title>
<path fill="none" stroke="black" d="M1110,-266.01C1110,-288.49 1110,-324 1110,-324 1110,-324 677.68,-324 677.68,-324"/>
<polygon fill="black" stroke="black" points="677.68,-320.5 667.68,-324 677.68,-327.5 677.68,-320.5"/>
</g>
<!-- TagsModule -->
<g id="node4" class="node">
<title>TagsModule</title>
<polygon fill="#8dd3c7" stroke="black" points="1090.26,-190 1087.26,-194 1066.26,-194 1063.26,-190 1003.74,-190 1003.74,-154 1090.26,-154 1090.26,-190"/>
<text text-anchor="middle" x="1047" y="-167.8" font-family="Times,serif" font-size="14.00">TagsModule</text>
</g>
<!-- TagsModule&#45;&gt;PostsModule -->
<g id="edge10" class="edge">
<title>TagsModule&#45;&gt;PostsModule</title>
<path fill="none" stroke="black" d="M1077.91,-190.01C1077.91,-190.01 1077.91,-219.85 1077.91,-219.85"/>
<polygon fill="black" stroke="black" points="1074.41,-219.85 1077.91,-229.85 1081.41,-219.85 1074.41,-219.85"/>
</g>
<!-- TagsModule&#45;&gt;AppModule -->
<g id="edge4" class="edge">
<title>TagsModule&#45;&gt;AppModule</title>
<path fill="none" stroke="black" d="M1044.84,-190.11C1044.84,-228.59 1044.84,-315 1044.84,-315 1044.84,-315 677.69,-315 677.69,-315"/>
<polygon fill="black" stroke="black" points="677.69,-311.5 667.69,-315 677.69,-318.5 677.69,-311.5"/>
</g>
<!-- TagsService  -->
<g id="node12" class="node">
<title>TagsService </title>
<polygon fill="#fb8072" stroke="black" points="964.19,-266 875.81,-266 875.81,-230 964.19,-230 964.19,-266"/>
<text text-anchor="middle" x="920" y="-243.8" font-family="Times,serif" font-size="14.00">TagsService </text>
</g>
<!-- TagsModule&#45;&gt;TagsService  -->
<g id="edge13" class="edge">
<title>TagsModule&#45;&gt;TagsService </title>
<path fill="none" stroke="black" stroke-dasharray="5,2" d="M1024.23,-190.01C1024.23,-212.49 1024.23,-248 1024.23,-248 1024.23,-248 974.2,-248 974.2,-248"/>
<polygon fill="black" stroke="black" points="974.2,-244.5 964.2,-248 974.2,-251.5 974.2,-244.5"/>
</g>
<!-- UsersModule -->
<g id="node5" class="node">
<title>UsersModule</title>
<polygon fill="#8dd3c7" stroke="black" points="1369.92,-190 1366.92,-194 1345.92,-194 1342.92,-190 1278.08,-190 1278.08,-154 1369.92,-154 1369.92,-190"/>
<text text-anchor="middle" x="1324" y="-167.8" font-family="Times,serif" font-size="14.00">UsersModule</text>
</g>
<!-- UsersModule&#45;&gt;PostsModule -->
<g id="edge11" class="edge">
<title>UsersModule&#45;&gt;PostsModule</title>
<path fill="none" stroke="black" d="M1284.3,-190.01C1284.3,-212.49 1284.3,-248 1284.3,-248 1284.3,-248 1164.89,-248 1164.89,-248"/>
<polygon fill="black" stroke="black" points="1164.89,-244.5 1154.89,-248 1164.89,-251.5 1164.89,-244.5"/>
</g>
<!-- UsersModule&#45;&gt;AppModule -->
<g id="edge5" class="edge">
<title>UsersModule&#45;&gt;AppModule</title>
<path fill="none" stroke="black" d="M1290.31,-190.16C1290.31,-232.26 1290.31,-333 1290.31,-333 1290.31,-333 677.81,-333 677.81,-333"/>
<polygon fill="black" stroke="black" points="677.81,-329.5 667.81,-333 677.81,-336.5 677.81,-329.5"/>
</g>
<!-- UsersService  -->
<g id="node14" class="node">
<title>UsersService </title>
<polygon fill="#fb8072" stroke="black" points="1389.85,-266 1296.15,-266 1296.15,-230 1389.85,-230 1389.85,-266"/>
<text text-anchor="middle" x="1343" y="-243.8" font-family="Times,serif" font-size="14.00">UsersService </text>
</g>
<!-- UsersModule&#45;&gt;UsersService  -->
<g id="edge15" class="edge">
<title>UsersModule&#45;&gt;UsersService </title>
<path fill="none" stroke="black" stroke-dasharray="5,2" d="M1333.02,-190.01C1333.02,-190.01 1333.02,-219.85 1333.02,-219.85"/>
<polygon fill="black" stroke="black" points="1329.52,-219.85 1333.02,-229.85 1336.52,-219.85 1329.52,-219.85"/>
</g>
<!-- AppService -->
<g id="node7" class="node">
<title>AppService</title>
<ellipse fill="#fdb462" stroke="black" cx="615" cy="-248" rx="56.74" ry="18"/>
<text text-anchor="middle" x="615" y="-243.8" font-family="Times,serif" font-size="14.00">AppService</text>
</g>
<!-- AppService&#45;&gt;AppModule -->
<g id="edge6" class="edge">
<title>AppService&#45;&gt;AppModule</title>
<path fill="none" stroke="black" d="M626,-266.01C626,-266.01 626,-295.85 626,-295.85"/>
<polygon fill="black" stroke="black" points="622.5,-295.85 626,-305.85 629.5,-295.85 622.5,-295.85"/>
</g>
<!-- AuthService -->
<g id="node9" class="node">
<title>AuthService</title>
<ellipse fill="#fdb462" stroke="black" cx="83" cy="-324" rx="59.11" ry="18"/>
<text text-anchor="middle" x="83" y="-319.8" font-family="Times,serif" font-size="14.00">AuthService</text>
</g>
<!-- AuthService&#45;&gt;AuthModule -->
<g id="edge8" class="edge">
<title>AuthService&#45;&gt;AuthModule</title>
<path fill="none" stroke="black" d="M83,-305.99C83,-283.51 83,-248 83,-248 83,-248 286.4,-248 286.4,-248"/>
<polygon fill="black" stroke="black" points="286.4,-251.5 296.4,-248 286.4,-244.5 286.4,-251.5"/>
</g>
<!-- MetaOptionsService -->
<g id="node10" class="node">
<title>MetaOptionsService</title>
<ellipse fill="#fdb462" stroke="black" cx="468" cy="-172" rx="90.33" ry="18"/>
<text text-anchor="middle" x="468" y="-167.8" font-family="Times,serif" font-size="14.00">MetaOptionsService</text>
</g>
<!-- MetaOptionsService&#45;&gt;MetaOptionsModule -->
<g id="edge9" class="edge">
<title>MetaOptionsService&#45;&gt;MetaOptionsModule</title>
<path fill="none" stroke="black" d="M468,-190.01C468,-190.01 468,-219.85 468,-219.85"/>
<polygon fill="black" stroke="black" points="464.5,-219.85 468,-229.85 471.5,-219.85 464.5,-219.85"/>
</g>
<!-- PostsService -->
<g id="node11" class="node">
<title>PostsService</title>
<ellipse fill="#fdb462" stroke="black" cx="1174" cy="-172" rx="60.27" ry="18"/>
<text text-anchor="middle" x="1174" y="-167.8" font-family="Times,serif" font-size="14.00">PostsService</text>
</g>
<!-- PostsService&#45;&gt;PostsModule -->
<g id="edge12" class="edge">
<title>PostsService&#45;&gt;PostsModule</title>
<path fill="none" stroke="black" d="M1134.09,-185.59C1134.09,-185.59 1134.09,-219.96 1134.09,-219.96"/>
<polygon fill="black" stroke="black" points="1130.59,-219.96 1134.09,-229.96 1137.59,-219.96 1130.59,-219.96"/>
</g>
<!-- TagsService -->
<g id="node13" class="node">
<title>TagsService</title>
<ellipse fill="#fdb462" stroke="black" cx="793" cy="-248" rx="58.53" ry="18"/>
<text text-anchor="middle" x="793" y="-243.8" font-family="Times,serif" font-size="14.00">TagsService</text>
</g>
<!-- TagsService&#45;&gt;TagsModule -->
<g id="edge14" class="edge">
<title>TagsService&#45;&gt;TagsModule</title>
<path fill="none" stroke="black" d="M793,-229.99C793,-207.51 793,-172 793,-172 793,-172 993.62,-172 993.62,-172"/>
<polygon fill="black" stroke="black" points="993.62,-175.5 1003.62,-172 993.62,-168.5 993.62,-175.5"/>
</g>
<!-- UsersService -->
<g id="node15" class="node">
<title>UsersService</title>
<ellipse fill="#fdb462" stroke="black" cx="1336" cy="-104" rx="61.95" ry="18"/>
<text text-anchor="middle" x="1336" y="-99.8" font-family="Times,serif" font-size="14.00">UsersService</text>
</g>
<!-- UsersService&#45;&gt;UsersModule -->
<g id="edge16" class="edge">
<title>UsersService&#45;&gt;UsersModule</title>
<path fill="none" stroke="black" d="M1324,-121.87C1324,-121.87 1324,-143.54 1324,-143.54"/>
<polygon fill="black" stroke="black" points="1320.5,-143.54 1324,-153.54 1327.5,-143.54 1320.5,-143.54"/>
</g>
</g>
</svg>
